<svg width="41" height="35" viewBox="0 0 41 35" fill="none" xmlns="http://www.w3.org/2000/svg">
<path d="M33.1129 10.3463V21.3107L40.759 16.8956V5.93115L33.1129 10.3463Z" fill="#490BDA" stroke="#8B5CF6" stroke-width="0.229477" stroke-linecap="round" stroke-linejoin="round"/>
<path d="M40.7594 5.58954L33.1133 10.0001L31.5803 9.23363L29.2902 8.09084V5.63085L26.2152 4.09335L31.5803 1L40.7594 5.58954Z" fill="#490BDA" stroke="#8B5CF6" stroke-width="0.229477" stroke-linecap="round" stroke-linejoin="round"/>
<path d="M29.2898 5.63079L27.0088 6.94799L23.9338 8.72414L21.6482 10.0413L20.1108 9.27488L17.8252 8.13209V5.6721L14.7501 4.1346L20.1108 1.04126L26.2148 4.0933L29.2898 5.63079Z" fill="#490BDA" stroke="#8B5CF6" stroke-width="0.229477" stroke-linecap="round" stroke-linejoin="round"/>
<path d="M17.8253 6.01367V30.1363L10.1791 34.5468V10.4288L12.4693 9.10702L15.5397 7.33546L17.5774 6.15595L17.8253 6.01367Z" fill="#490BDA" stroke="#8B5CF6" stroke-width="0.229477" stroke-linecap="round" stroke-linejoin="round"/>
<path d="M29.29 5.97241V23.5136L21.6485 27.9288V10.3875L23.9341 9.06576L27.0045 7.2942L29.0422 6.11469L29.29 5.97241Z" fill="#490BDA" stroke="#8B5CF6" stroke-width="0.229477" stroke-linecap="round" stroke-linejoin="round"/>
<path d="M17.8253 5.67206L15.5442 6.98926L12.4692 8.76082L10.1791 10.0826L8.64619 9.31616L1 5.49307L8.64619 1.08252L14.7502 4.13456L17.8253 5.67206Z" fill="#490BDA" stroke="#8B5CF6" stroke-width="0.229477" stroke-linecap="round" stroke-linejoin="round"/>
<path d="M10.1791 10.4289V34.5469L1 29.9574V5.83936L10.1791 10.4289Z" fill="#490BDA" stroke="#8B5CF6" stroke-width="0.229477" stroke-linecap="round" stroke-linejoin="round"/>
<path d="M21.6484 10.3875V27.9287L17.8253 26.0195V8.47827L20.1109 9.62106L21.6484 10.3875Z" fill="#490BDA" stroke="#8B5CF6" stroke-width="0.229477" stroke-linecap="round" stroke-linejoin="round"/>
<path d="M33.1127 10.3463V21.3107L29.2897 19.4014V8.43701L31.5799 9.57981L33.1127 10.3463Z" fill="#490BDA" stroke="#8B5CF6" stroke-width="0.229477" stroke-linecap="round" stroke-linejoin="round"/>
</svg>
