<svg width="430" height="316" viewBox="0 0 430 316" fill="none" xmlns="http://www.w3.org/2000/svg">
<g clip-path="url(#clip0_114_356)">
<path d="M277.042 71.6371C285.917 71.6371 293.111 64.4428 293.111 55.5681C293.111 46.6935 285.917 39.4991 277.042 39.4991C268.167 39.4991 260.973 46.6935 260.973 55.5681C260.973 64.4428 268.167 71.6371 277.042 71.6371Z" fill="#F2F2F2"/>
<path d="M338.888 168.249L63.8899 0L-26 146.923L248.998 315.171L338.888 168.249Z" fill="#F2F2F2"/>
<path d="M314.453 214.852C311.942 209.077 308.075 204.005 300.342 199.737C296.345 197.477 292.052 195.787 287.587 194.716C290.591 193.32 293.354 191.455 295.772 189.192C299.328 186.014 302.022 181.989 303.606 177.492C305.064 172.921 305.66 168.119 305.364 163.331C304.811 154.895 303.154 146.709 298.735 140.834C294.316 134.959 288.09 130.44 279.854 127.276C273.527 124.866 267.049 123.359 257.006 122.807V90.719L236.92 103.273V122.857H220.851V102.269L200.262 90.719V122.857H156.525L170.585 146.961C174.929 146.966 177.871 147.367 179.373 148.115C180.774 148.715 181.927 149.779 182.637 151.128C183.29 152.384 183.591 155.346 183.591 159.916V246.89C183.591 251.409 183.29 254.321 182.637 255.627C181.984 256.933 181.632 258.088 180.076 258.791C178.519 259.494 178.469 259.443 174.15 259.443H174.1L156.525 283.547H200.212V315.685H220.801V283.547H236.87V315.685H256.956V283.346C270.012 282.693 279.302 280.986 286.784 278.174C296.476 274.558 303.907 269.286 309.23 262.356C314.553 255.426 316.712 244.831 317.164 236.646C317.516 229.364 316.712 219.974 314.453 214.852ZM220.801 149.973H220.806V149.306H234.846C242.745 149.306 269.068 146.674 269.505 168.172C269.947 189.669 234.846 188.79 234.846 188.79H220.806V187.133H220.801V149.973ZM220.801 211.236H236.87C240.134 211.236 251.362 211.734 255.449 211.919C257.116 211.98 258.766 212.274 260.35 212.793C260.928 212.989 261.475 213.21 262.068 213.456C264.545 214.256 266.881 215.439 268.993 216.961C270.369 217.87 271.58 219.008 272.573 220.325C273.003 220.92 273.399 221.539 273.758 222.178C274.709 223.787 275.414 225.529 275.852 227.346C276.331 229.1 276.579 230.91 276.59 232.729C276.59 236.641 275.867 239.879 274.084 242.621C271.669 246.669 267.707 249.536 263.248 251.56C251.718 256.802 236.87 256.43 236.87 256.43H220.801V211.236Z" fill="#3F3D56"/>
<path opacity="0.3" d="M281.39 56.2442C281.238 55.8679 280.958 55.5573 280.599 55.367C280.376 55.2362 280.135 55.1381 279.884 55.0756C280.054 54.9941 280.209 54.8858 280.343 54.755C280.544 54.5687 280.695 54.3353 280.782 54.076C280.864 53.8102 280.898 53.5318 280.881 53.2542C280.88 52.7931 280.751 52.3413 280.509 51.9486C280.24 51.5897 279.872 51.3164 279.451 51.1617C279.042 51.003 278.609 50.9153 278.17 50.9023V49.0401L277.044 49.7686V50.9052H276.143V49.7104L274.989 49.0401V50.9052H272.537L273.325 52.3041C273.492 52.2926 273.66 52.3154 273.818 52.3711C273.897 52.4066 273.962 52.4684 274.001 52.546C274.049 52.7114 274.067 52.8841 274.054 53.056V58.1035C274.067 58.2744 274.049 58.4461 274.001 58.6106C273.964 58.6864 273.945 58.7534 273.857 58.7942C273.77 58.835 273.767 58.8321 273.525 58.8321H273.522L272.537 60.231H274.986V62.0961H276.14V60.231H277.041V62.0961H278.167V60.2193C278.737 60.2092 279.302 60.1078 279.839 59.9191C280.339 59.7408 280.775 59.422 281.098 59.0011C281.379 58.5533 281.532 58.0375 281.542 57.509C281.572 57.0816 281.521 56.6525 281.39 56.2442ZM276.14 52.479L276.141 52.4402H276.928C277.371 52.4402 278.846 52.2875 278.871 53.5351C278.896 54.7827 276.928 54.7317 276.928 54.7317H276.141V54.6356L276.14 52.479ZM276.14 56.0344H277.041C277.224 56.0344 277.854 56.0633 278.083 56.0741C278.176 56.0776 278.269 56.0947 278.358 56.1248C278.39 56.1361 278.421 56.149 278.454 56.1632C278.593 56.21 278.724 56.2786 278.842 56.3667C278.92 56.4198 278.987 56.4858 279.043 56.5619C279.128 56.6855 279.19 56.8236 279.227 56.9693C279.253 57.0713 279.267 57.1763 279.268 57.2818C279.277 57.4826 279.228 57.682 279.127 57.8559C278.983 58.0869 278.771 58.268 278.52 58.3746C278.051 58.5667 277.548 58.6628 277.041 58.6573H276.14V56.0344Z" fill="#6C63FF"/>
<path d="M374.786 238.922C378.039 238.922 380.676 236.285 380.676 233.032C380.676 229.779 378.039 227.142 374.786 227.142C371.533 227.142 368.896 229.779 368.896 233.032C368.896 236.285 371.533 238.922 374.786 238.922Z" fill="#FF6584"/>
<path d="M421.218 297.148V230.085" stroke="#3F3D56" stroke-width="1.00431" stroke-miterlimit="10"/>
<path d="M421.218 239.569C426.456 239.569 430.702 235.323 430.702 230.085C430.702 224.847 426.456 220.601 421.218 220.601C415.98 220.601 411.734 224.847 411.734 230.085C411.734 235.323 415.98 239.569 421.218 239.569Z" fill="#3F3D56"/>
<path d="M402.541 267.634C388.842 288.641 392.595 315.36 392.595 315.36C392.595 315.36 418.559 308.019 432.257 287.012C445.956 266.004 442.202 239.285 442.202 239.285C442.202 239.285 416.239 246.626 402.541 267.634Z" fill="#3F3D56"/>
<path d="M392.523 315.116C392.523 315.116 392.189 315.063 391.575 314.939C391.086 314.839 390.412 314.697 389.589 314.502C382.231 312.767 362.669 306.903 349.88 291.485C333.873 272.179 334.547 245.206 334.547 245.206C334.547 245.206 359.022 249.183 375.15 266.52C375.849 267.265 376.529 268.037 377.19 268.837C391.118 285.635 392.416 308.237 392.519 313.825C392.533 314.662 392.523 315.116 392.523 315.116Z" fill="#6C63FF"/>
<path d="M382.65 267.634C396.349 288.641 392.595 315.36 392.595 315.36C392.595 315.36 366.632 308.019 352.933 287.012C339.235 266.004 342.988 239.285 342.988 239.285C342.988 239.285 368.951 246.626 382.65 267.634Z" stroke="#3F3D56" stroke-width="1.00431" stroke-miterlimit="10"/>
<path opacity="0.1" d="M392.519 313.825C392.157 314.261 391.838 314.633 391.575 314.938C390.993 315.602 390.663 315.95 390.663 315.95C390.663 315.95 390.263 315.446 389.588 314.502C385.888 309.344 373.986 291.003 374.905 269.816C374.954 268.706 375.036 267.607 375.15 266.52C375.848 267.265 376.528 268.037 377.189 268.837C391.118 285.635 392.416 308.237 392.519 313.825Z" fill="black"/>
<path d="M412.83 271.348C411.748 296.404 393.148 315.95 393.148 315.95C393.148 315.95 376.304 294.872 377.387 269.816C378.47 244.761 397.069 225.215 397.069 225.215C397.069 225.215 413.913 246.292 412.83 271.348Z" fill="#6C63FF"/>
<path d="M393.148 315.24L397.237 226.237" stroke="#3F3D56" stroke-width="1.00431" stroke-miterlimit="10"/>
<path opacity="0.4" d="M2.85974 315.338L427 316.002" stroke="#CCCCCC" stroke-width="2" stroke-miterlimit="10"/>
<path d="M93.0891 206.795C104.939 206.795 114.546 197.188 114.546 185.338C114.546 173.488 104.939 163.881 93.0891 163.881C81.2387 163.881 71.6321 173.488 71.6321 185.338C71.6321 197.188 81.2387 206.795 93.0891 206.795Z" fill="#6C63FF"/>
<path d="M56.6177 257.294C68.468 257.294 78.0747 247.687 78.0747 235.837C78.0747 223.986 68.468 214.38 56.6177 214.38C44.7673 214.38 35.1606 223.986 35.1606 235.837C35.1606 247.687 44.7673 257.294 56.6177 257.294Z" fill="#6C63FF"/>
<path d="M11.7298 297.623C23.5802 297.623 33.1869 288.016 33.1869 276.166C33.1869 264.315 23.5802 254.709 11.7298 254.709C-0.120543 254.709 -9.72717 264.315 -9.72717 276.166C-9.72717 288.016 -0.120543 297.623 11.7298 297.623Z" fill="#6C63FF"/>
<path d="M11.7107 314.97V276.048" stroke="#3F3D56" stroke-width="1.00431" stroke-miterlimit="10"/>
<path d="M11.7108 281.552C14.7507 281.552 17.215 279.088 17.215 276.048C17.215 273.008 14.7507 270.544 11.7108 270.544C8.67095 270.544 6.20667 273.008 6.20667 276.048C6.20667 279.088 8.67095 281.552 11.7108 281.552Z" fill="#3F3D56"/>
<path d="M11.7108 300.036C11.7108 300.036 10.9245 283.124 -5.19482 285.09L11.7108 300.036Z" fill="#3F3D56"/>
<path d="M93.1025 315.243V185.417" stroke="#3F3D56" stroke-width="1.00431" stroke-miterlimit="10"/>
<path d="M93.1025 190.859C96.1424 190.859 98.6067 188.395 98.6067 185.355C98.6067 182.315 96.1424 179.851 93.1025 179.851C90.0627 179.851 87.5984 182.315 87.5984 185.355C87.5984 188.395 90.0627 190.859 93.1025 190.859Z" fill="#3F3D56"/>
<path d="M76.197 284.789C79.2369 284.789 81.7012 282.325 81.7012 279.285C81.7012 276.245 79.2369 273.781 76.197 273.781C73.1572 273.781 70.6929 276.245 70.6929 279.285C70.6929 282.325 73.1572 284.789 76.197 284.789Z" fill="#3F3D56"/>
<path d="M93.1026 213.471C93.1026 213.471 92.3163 196.559 76.197 198.525L93.1026 213.471Z" fill="#3F3D56"/>
<path d="M93.1026 261.414C93.1026 261.414 92.3163 244.502 76.197 246.468L93.1026 261.414Z" fill="#3F3D56"/>
<path d="M93.1026 313.73C93.1026 313.73 96.641 280.858 76.197 279.285" stroke="#3F3D56" stroke-width="1.00431" stroke-miterlimit="10"/>
<path d="M110.01 284.789C113.05 284.789 115.515 282.325 115.515 279.285C115.515 276.245 113.05 273.781 110.01 273.781C106.971 273.781 104.506 276.245 104.506 279.285C104.506 282.325 106.971 284.789 110.01 284.789Z" fill="#3F3D56"/>
<path d="M93.1051 313.73C93.1051 313.73 89.5667 280.858 110.011 279.285" stroke="#3F3D56" stroke-width="1.00431" stroke-miterlimit="10"/>
<path d="M110.346 233.158C113.386 233.158 115.85 230.694 115.85 227.654C115.85 224.614 113.386 222.15 110.346 222.15C107.306 222.15 104.842 224.614 104.842 227.654C104.842 230.694 107.306 233.158 110.346 233.158Z" fill="#3F3D56"/>
<path d="M93.4403 260.346C93.4403 260.346 89.9019 229.227 110.346 227.654" stroke="#3F3D56" stroke-width="1.00431" stroke-miterlimit="10"/>
<path d="M56.6373 315.06V235.813" stroke="#3F3D56" stroke-width="1.00431" stroke-miterlimit="10"/>
<path d="M56.6373 241.317C59.6772 241.317 62.1415 238.853 62.1415 235.813C62.1415 232.773 59.6772 230.309 56.6373 230.309C53.5975 230.309 51.1332 232.773 51.1332 235.813C51.1332 238.853 53.5975 241.317 56.6373 241.317Z" fill="#3F3D56"/>
<path d="M56.6373 258.229C56.6373 258.229 55.851 241.317 39.7317 243.283L56.6373 258.229Z" fill="#3F3D56"/>
<path d="M56.6373 313.547C56.6373 313.547 60.1757 281.025 39.7317 279.453" stroke="#3F3D56" stroke-width="1.00431" stroke-miterlimit="10"/>
<path d="M39.7317 284.957C42.7715 284.957 45.2358 282.493 45.2358 279.453C45.2358 276.413 42.7715 273.949 39.7317 273.949C36.6918 273.949 34.2275 276.413 34.2275 279.453C34.2275 282.493 36.6918 284.957 39.7317 284.957Z" fill="#3F3D56"/>
<path d="M358.893 194.665C363.885 194.665 367.932 190.619 367.932 185.627C367.932 180.635 363.885 176.588 358.893 176.588C353.901 176.588 349.855 180.635 349.855 185.627C349.855 190.619 353.901 194.665 358.893 194.665Z" fill="#F2F2F2"/>
<path opacity="0.1" d="M263.248 251.56C251.718 256.802 236.87 256.431 236.87 256.431H220.801V253.362C227.349 251.535 236.403 250.405 246.41 250.405C252.043 250.385 257.67 250.771 263.248 251.56Z" fill="black"/>
<path opacity="0.1" d="M282.566 260.448C282.566 265.997 266.376 270.491 246.41 270.491C226.445 270.491 210.255 265.997 210.255 260.448C210.255 257.681 214.283 255.175 220.801 253.362V256.43H236.87C236.87 256.43 251.718 256.802 263.248 251.56C274.732 253.237 282.566 256.586 282.566 260.448Z" fill="black"/>
<path d="M251.029 197.914H235.645V213.325H251.029V197.914Z" fill="#2F2E41"/>
<path d="M241.366 208.812C241.366 208.812 242.639 213.269 240.411 213.587C239.028 213.803 237.717 214.349 236.591 215.179L240.729 220.591H248.369L253.144 215.816C253.144 215.816 246.777 211.041 248.051 208.176C249.324 205.311 241.366 208.812 241.366 208.812Z" fill="#FFB9B9"/>
<path opacity="0.1" d="M241.366 208.812C241.366 208.812 242.639 213.269 240.411 213.587C239.028 213.803 237.717 214.349 236.591 215.179L240.729 220.591H248.369L253.144 215.816C253.144 215.816 246.777 211.041 248.051 208.176C249.324 205.311 241.366 208.812 241.366 208.812Z" fill="black"/>
<path d="M243.276 264.202L250.598 266.749L255.69 267.067L255.372 262.61L244.867 259.504L243.276 264.202Z" fill="#FFB9B9"/>
<path d="M252.666 263.247C252.666 263.247 252.666 267.704 253.303 267.704C253.94 267.704 262.535 266.749 265.081 267.704C267.628 268.659 271.448 265.157 269.538 263.247C267.628 261.337 264.513 258.472 262.569 259.109C260.625 259.746 252.666 261.337 252.666 261.337L252.666 263.247Z" fill="#2F2E41"/>
<path d="M229.269 259.109C229.269 259.109 225.449 266.749 227.996 267.386C230.542 268.022 233.407 267.067 233.726 266.749C234.044 266.431 238.501 265.157 239.137 265.794C239.774 266.431 239.774 263.247 239.774 263.247L229.269 259.109Z" fill="#2F2E41"/>
<path d="M232.452 248.604C232.452 248.604 226.404 256.881 230.861 259.109C235.317 261.337 256.646 261.337 258.237 259.109C259.829 256.881 260.466 249.877 258.237 249.241C256.009 248.604 232.452 248.604 232.452 248.604Z" fill="#2F2E41"/>
<path opacity="0.2" d="M232.452 248.604C232.452 248.604 226.404 256.881 230.861 259.109C235.317 261.337 256.646 261.337 258.237 259.109C259.829 256.881 260.466 249.877 258.237 249.241C256.009 248.604 232.452 248.604 232.452 248.604Z" fill="black"/>
<path d="M243.912 211.041C247.956 211.041 251.234 207.763 251.234 203.719C251.234 199.675 247.956 196.397 243.912 196.397C239.869 196.397 236.591 199.675 236.591 203.719C236.591 207.763 239.869 211.041 243.912 211.041Z" fill="#FFB9B9"/>
<path d="M232.452 215.179L238.819 213.906C238.819 213.906 240.411 218.999 245.504 218.044C250.597 217.089 251.871 213.906 251.871 213.906C251.871 213.906 255.691 215.497 256.009 215.497C256.327 215.497 260.466 217.089 260.466 218.044C260.466 218.999 255.691 228.549 255.691 228.549L256.327 245.739L232.771 245.102L234.362 228.231L232.452 215.179Z" fill="#6C63FF"/>
<path d="M228.951 223.456C228.951 223.456 227.041 240.327 228.314 241.601C229.587 242.874 234.681 246.376 234.681 246.376V242.556L232.134 237.781L234.681 226.639L228.951 223.456Z" fill="#FFB9B9"/>
<path d="M261.898 222.978C261.898 222.978 260.784 240.327 260.784 240.964C260.784 241.601 257.919 243.829 256.964 243.829C256.009 243.829 255.372 242.237 255.372 242.237L257.601 239.691L256.009 226.639L261.898 222.978Z" fill="#FFB9B9"/>
<path d="M258.874 247.331C258.874 247.331 273.199 239.372 273.517 247.331C273.836 255.289 266.196 258.472 266.196 258.472C266.196 258.472 246.459 264.39 245.663 262.227C244.867 260.064 243.276 256.562 244.549 256.244C245.822 255.926 247.414 255.289 248.051 255.926C248.687 256.562 256.646 251.151 256.646 251.151L258.874 247.331Z" fill="#2F2E41"/>
<path opacity="0.2" d="M265.559 246.376C265.559 246.376 262.694 247.649 261.739 248.604C260.784 249.559 256.646 251.151 256.646 251.151" stroke="black" stroke-width="1.00431" stroke-miterlimit="10"/>
<path d="M234.362 215.816L232.452 215.179C232.452 215.179 225.449 222.501 227.677 224.411C229.906 226.321 231.179 226.957 231.816 227.594C232.452 228.231 235.636 228.549 235.636 228.549L234.362 215.816Z" fill="#6C63FF"/>
<path d="M257.601 217.407L260.466 218.044C260.466 218.044 262.694 222.819 263.331 223.456C263.967 224.092 262.376 223.774 261.421 225.047C260.466 226.321 259.511 228.549 257.601 228.549C255.691 228.549 253.144 225.366 253.144 225.366L257.601 217.407Z" fill="#6C63FF"/>
<path d="M233.089 250.196C233.089 250.196 220.992 241.601 216.854 247.967C212.716 254.334 234.681 262.929 237.864 264.202C241.047 265.476 243.912 266.749 243.912 266.749C243.912 266.749 246.777 259.746 246.777 258.472C246.777 257.199 244.549 257.199 243.912 257.199C243.276 257.199 240.411 256.562 239.774 255.607C239.137 254.652 233.089 250.196 233.089 250.196Z" fill="#2F2E41"/>
<path opacity="0.2" d="M226.404 247.967C226.404 247.967 229.587 250.514 232.452 251.151C235.317 251.787 236.272 253.379 236.272 253.379" stroke="black" stroke-width="1.00431" stroke-miterlimit="10"/>
<path d="M230.893 235.998L231.147 249.476C231.156 249.922 231.34 250.345 231.659 250.656C231.979 250.966 232.408 251.137 232.853 251.132L257.936 250.85C258.363 250.845 258.773 250.678 259.082 250.383C259.391 250.088 259.577 249.687 259.601 249.26L260.363 236.063C260.376 235.834 260.342 235.604 260.263 235.389C260.185 235.173 260.063 234.975 259.905 234.808C259.747 234.641 259.557 234.508 259.346 234.417C259.135 234.326 258.908 234.279 258.678 234.279H232.58C232.356 234.279 232.134 234.324 231.927 234.41C231.72 234.497 231.533 234.624 231.376 234.784C231.219 234.945 231.095 235.134 231.012 235.343C230.929 235.551 230.889 235.774 230.893 235.998Z" fill="#575A89"/>
<path d="M227.992 215.259C228.675 213.752 229.593 212.337 230.03 210.741C230.555 208.828 230.351 206.804 230.288 204.821C230.189 203.067 230.338 201.308 230.732 199.597C231.132 197.877 232.03 196.313 233.314 195.101C236.65 192.123 242.756 191.909 246.829 193.149C248.435 193.638 250.146 194.569 250.544 196.199C250.604 196.446 250.631 196.699 250.698 196.944C251.031 198.158 252.274 198.926 252.722 200.103C253.301 201.625 252.408 203.28 252.291 204.904C252.154 206.8 253.087 208.592 254.006 210.257C254.552 211.246 255.12 212.3 255.066 213.429C255.02 214.047 254.832 214.645 254.517 215.178C253.932 216.144 253.11 216.945 252.131 217.507C251.151 218.068 250.044 218.372 248.915 218.389C248.181 218.448 247.447 218.275 246.816 217.894C245.822 217.209 245.531 215.831 245.738 214.642C245.945 213.453 246.549 212.377 247.022 211.267C247.167 210.926 247.298 210.579 247.419 210.229C248.885 209.411 250.015 208.1 250.61 206.529C251.204 204.958 251.224 203.228 250.666 201.643C250.108 200.059 249.008 198.723 247.561 197.871C246.113 197.019 244.411 196.706 242.755 196.986C241.1 197.267 239.596 198.124 238.511 199.406C237.425 200.688 236.828 202.312 236.823 203.991C236.819 205.671 237.409 207.298 238.487 208.585C239.566 209.873 241.065 210.737 242.72 211.026C243.077 212.823 242.915 214.684 242.253 216.392C241.651 217.781 240.895 219.099 240 220.32C239.633 220.946 239.145 221.492 238.564 221.926C238.181 222.153 237.77 222.329 237.342 222.449C235.544 223.027 233.65 223.492 231.779 223.232C229.909 222.972 228.056 221.844 227.418 220.066C226.86 218.508 227.309 216.767 227.992 215.259Z" fill="#2F2E41"/>
<path d="M243.557 204.011C247.849 204.011 251.328 202.04 251.328 199.608C251.328 197.176 247.849 195.205 243.557 195.205C239.266 195.205 235.787 197.176 235.787 199.608C235.787 202.04 239.266 204.011 243.557 204.011Z" fill="#2F2E41"/>
<path opacity="0.3" d="M362.272 186.152C362.154 185.859 361.936 185.618 361.658 185.47C361.484 185.369 361.297 185.292 361.102 185.244C361.234 185.18 361.354 185.096 361.459 184.995C361.614 184.85 361.732 184.669 361.8 184.467C361.864 184.26 361.889 184.044 361.876 183.828C361.875 183.47 361.775 183.119 361.588 182.814C361.378 182.535 361.093 182.323 360.765 182.202C360.447 182.079 360.111 182.011 359.77 182.001V180.554L358.895 181.12V182.003H358.195V181.075L357.298 180.554V182.003H355.393L356.005 183.09C356.135 183.081 356.265 183.099 356.388 183.142C356.45 183.17 356.5 183.218 356.53 183.278C356.568 183.407 356.582 183.541 356.572 183.674V187.597C356.581 187.729 356.567 187.863 356.53 187.991C356.502 188.05 356.487 188.102 356.419 188.133C356.351 188.165 356.349 188.163 356.161 188.163H356.158L355.393 189.25H357.296V190.699H358.193V189.25H358.893V190.699H359.768V189.241C360.211 189.233 360.649 189.154 361.067 189.008C361.455 188.869 361.795 188.621 362.045 188.294C362.263 187.946 362.383 187.545 362.391 187.135C362.414 186.803 362.374 186.469 362.272 186.152ZM358.193 183.226L358.193 183.196H358.805C359.149 183.196 360.295 183.077 360.314 184.047C360.334 185.016 358.805 184.977 358.805 184.977H358.193V184.902L358.193 183.226ZM358.193 185.989H358.893C359.035 185.989 359.524 186.011 359.702 186.02C359.775 186.022 359.847 186.036 359.916 186.059C359.941 186.068 359.965 186.078 359.99 186.089C360.099 186.125 360.201 186.179 360.292 186.247C360.352 186.288 360.405 186.34 360.448 186.399C360.514 186.495 360.563 186.602 360.591 186.715C360.612 186.795 360.623 186.876 360.623 186.958C360.63 187.114 360.592 187.269 360.514 187.404C360.402 187.584 360.237 187.724 360.042 187.807C359.677 187.957 359.287 188.031 358.893 188.027H358.193V185.989Z" fill="#6C63FF"/>
<path d="M6.37999 226.301C11.372 226.301 15.4188 222.254 15.4188 217.262C15.4188 212.27 11.372 208.224 6.37999 208.224C1.388 208.224 -2.65881 212.27 -2.65881 217.262C-2.65881 222.254 1.388 226.301 6.37999 226.301Z" fill="#F2F2F2"/>
<path opacity="0.3" d="M9.75904 217.788C9.64069 217.495 9.42304 217.254 9.14435 217.106C8.97091 217.004 8.78381 216.928 8.58874 216.88C8.72019 216.816 8.84057 216.732 8.94526 216.63C9.10107 216.486 9.21836 216.304 9.28652 216.103C9.35009 215.896 9.37602 215.68 9.36307 215.464C9.36196 215.106 9.26205 214.755 9.07433 214.45C8.86489 214.171 8.57924 213.958 8.25184 213.838C7.93395 213.715 7.59736 213.647 7.25654 213.637V212.19L6.38155 212.756V213.639H5.68154V212.71L4.78469 212.19V213.639H2.87939L3.4919 214.726C3.62171 214.717 3.75198 214.735 3.8747 214.778C3.93631 214.806 3.98652 214.854 4.01688 214.914C4.0542 215.042 4.06828 215.177 4.05845 215.31V219.233C4.06798 219.365 4.0539 219.499 4.01688 219.627C3.98845 219.685 3.97314 219.738 3.90533 219.769C3.83752 219.801 3.83533 219.799 3.64722 219.799H3.64503L2.87941 220.886H4.78252V222.335H5.67937V220.886H6.37938V222.335H7.25436V220.877C7.69716 220.869 8.13584 220.79 8.55373 220.643C8.9416 220.505 9.28116 220.257 9.53154 219.93C9.7498 219.582 9.86927 219.181 9.87715 218.771C9.90021 218.438 9.86013 218.105 9.75904 217.788ZM5.67939 214.862L5.67961 214.832H6.29124C6.63533 214.832 7.782 214.713 7.80103 215.683C7.82028 216.652 6.29124 216.612 6.29124 216.612H5.67961V216.538L5.67939 214.862ZM5.67939 217.625H6.37939C6.52158 217.625 7.0107 217.647 7.18876 217.655C7.26145 217.658 7.33336 217.671 7.40225 217.695C7.42741 217.704 7.45125 217.714 7.47708 217.725C7.58539 217.761 7.68723 217.814 7.77873 217.883C7.839 217.924 7.89176 217.975 7.9347 218.035C8.001 218.131 8.04939 218.238 8.07754 218.351C8.0984 218.43 8.1092 218.512 8.10968 218.594C8.1169 218.75 8.07899 218.905 8.00052 219.04C7.88819 219.22 7.72341 219.36 7.52847 219.443C7.16396 219.592 6.77324 219.667 6.37938 219.663H5.67938L5.67939 217.625Z" fill="#6C63FF"/>
</g>
<defs>
<clipPath id="clip0_114_356">
<rect width="468.673" height="316" fill="white" transform="translate(-26)"/>
</clipPath>
</defs>
</svg>
