<svg width="420" height="338" viewBox="0 0 420 338" fill="none" xmlns="http://www.w3.org/2000/svg">
<g clip-path="url(#clip0_24_608)">
<path d="M238.823 299.021C235.924 294.962 232 291.991 227.066 290.88C222.764 289.911 218.341 290.076 213.968 290.11L158.674 290.536C153.939 290.572 149.398 294.675 149.618 299.592C149.836 304.467 153.598 308.687 158.674 308.648C174.871 308.523 191.069 308.398 207.266 308.273C211.084 308.244 214.905 308.175 218.724 308.187C219.581 308.19 220.435 308.235 221.292 308.245C221.5 308.247 221.649 308.246 221.755 308.241C221.782 308.249 221.804 308.257 221.839 308.266C222.286 308.389 222.744 308.473 223.194 308.59C223.036 308.595 223.485 308.875 223.711 308.97C223.742 309.031 223.808 309.139 223.918 309.307C224.072 309.595 224.528 310.472 224.547 310.444C225.231 312.175 225.796 313.952 226.237 315.76C227.289 319.749 227.521 320.583 227.672 324.325C227.864 329.052 231.701 333.606 236.728 333.381C241.471 333.169 245.99 329.395 245.784 324.325C245.438 315.782 243.939 306.185 238.823 299.021Z" fill="#E6E6E6"/>
<path d="M161.924 319.456C160.886 313.163 159.867 306.865 158.808 300.575C157.734 294.194 155.54 288.35 150.574 284.162C149.248 283.044 147.872 281.999 146.49 280.957C146.004 280.591 145.519 280.225 145.039 279.85C145.011 279.828 144.992 279.814 144.967 279.795C144.915 279.749 144.851 279.695 144.766 279.623C142.697 277.872 140.697 276.042 138.792 274.097C137.1 272.37 135.482 270.569 133.938 268.695C133.553 268.227 133.172 267.754 132.796 267.278C132.731 267.196 132.383 266.746 132.154 266.452C131.94 266.158 131.55 265.628 131.485 265.535C131.046 264.914 130.614 264.287 130.191 263.655C127.307 259.333 124.809 254.766 122.727 250.005C122.521 249.533 122.319 249.058 122.122 248.581C122.07 248.435 122.001 248.248 121.911 247.998C121.491 246.845 121.073 245.692 120.689 244.525C119.874 242.046 119.173 239.529 118.587 236.977C118.297 235.716 118.036 234.449 117.804 233.176C117.684 232.521 117.572 231.865 117.468 231.208C117.451 231.099 117.349 230.389 117.289 229.988C117.245 229.586 117.163 228.872 117.152 228.762C117.085 228.1 117.027 227.436 116.975 226.772C116.859 225.278 116.781 223.781 116.74 222.282C116.671 219.617 116.718 216.953 116.883 214.289C116.977 212.792 117.111 211.299 117.276 209.809C117.286 209.717 117.294 209.644 117.301 209.579C117.311 209.512 117.322 209.437 117.336 209.343C117.458 208.519 117.586 207.697 117.73 206.877C118.273 203.764 118.979 200.682 119.846 197.643C120.256 196.206 120.702 194.781 121.183 193.367C121.398 192.74 121.619 192.114 121.847 191.492C121.832 191.532 122.516 189.785 122.525 189.726C125.239 183.314 129.678 177.468 129.684 170.184C129.689 165.252 125.516 160.528 120.628 160.756C118.192 160.848 115.885 161.882 114.196 163.641C112.507 165.399 111.566 167.745 111.573 170.184C111.573 170.295 111.572 170.389 111.572 170.481C111.526 170.635 111.488 170.763 111.454 170.876C110.924 172.026 110.276 173.119 109.695 174.24C108.104 177.31 106.747 180.48 105.457 183.697C103.345 188.936 101.729 194.361 100.629 199.901C98.2387 212.039 98.0532 224.509 100.081 236.714C103.593 258.115 115.172 278.602 131.27 292.373C132.667 293.568 134.098 294.723 135.542 295.855C136.14 296.323 136.743 296.782 137.349 297.239C137.635 297.455 138.821 298.39 138.299 297.937C139.421 298.895 139.894 299.377 140.182 300.082C140.224 300.245 140.281 300.465 140.358 300.767C140.561 301.563 140.754 302.356 140.914 303.163C142.315 310.21 143.289 317.376 144.46 324.469C145.264 329.343 151.264 332.515 155.6 331.054C160.646 329.354 162.786 324.678 161.924 319.456Z" fill="#E6E6E6"/>
<path d="M239.738 337.735C235.935 337.745 232.283 336.246 229.584 333.567C226.885 330.888 225.358 327.247 225.34 323.444V313.114C214.524 314.324 177.488 314.044 166.872 312.338V323.031C166.844 326.831 165.314 330.466 162.617 333.143C159.919 335.82 156.273 337.322 152.473 337.322C148.673 337.322 145.026 335.82 142.329 333.143C139.632 330.466 138.102 326.831 138.074 323.031V302.037C123.695 294.049 111.708 282.369 103.351 268.202C94.993 254.035 90.5672 237.894 90.53 221.445C90.53 193.242 103.312 166.932 125.599 149.262C140.089 137.734 157.695 130.801 176.155 129.354C178.661 129.157 181.181 129.058 183.648 129.058C192.337 129.058 231.542 130.4 241.379 133.23L263.808 110.974C264.138 110.642 264.559 110.416 265.017 110.325C265.476 110.234 265.952 110.281 266.383 110.461C266.818 110.634 267.191 110.934 267.452 111.323C267.713 111.711 267.85 112.17 267.846 112.638V116.177L272.213 111.851C272.543 111.519 272.963 111.293 273.422 111.201C273.88 111.11 274.355 111.157 274.787 111.337C275.222 111.51 275.595 111.811 275.856 112.199C276.118 112.588 276.255 113.047 276.251 113.515V153.058C287.506 163.205 296.084 175.971 301.225 190.225C306.366 204.479 307.912 219.782 305.725 234.776C303.538 249.77 297.686 263.994 288.687 276.186C279.688 288.378 267.821 298.161 254.137 304.67V323.444C254.119 327.247 252.592 330.888 249.893 333.567C247.194 336.246 243.542 337.745 239.738 337.735ZM226.471 311.83V323.444C226.5 326.944 227.91 330.291 230.395 332.755C232.88 335.22 236.238 336.603 239.738 336.603C243.238 336.603 246.597 335.22 249.082 332.755C251.567 330.291 252.977 326.944 253.005 323.444V303.955L253.329 303.802C268.683 296.516 281.717 285.117 290.985 270.871C302.794 252.692 307.706 230.886 304.83 209.399C301.954 187.913 291.481 168.166 275.307 153.732L275.119 153.563V113.515C275.123 113.272 275.053 113.033 274.917 112.831C274.781 112.629 274.587 112.474 274.36 112.386C274.134 112.289 273.885 112.263 273.644 112.311C273.404 112.359 273.183 112.478 273.012 112.653L266.714 118.891V112.638C266.718 112.395 266.647 112.156 266.512 111.954C266.376 111.752 266.181 111.596 265.955 111.508C265.729 111.412 265.479 111.386 265.238 111.434C264.997 111.483 264.776 111.602 264.604 111.778L241.695 134.511L241.369 134.409C232.225 131.547 192.403 130.19 183.648 130.19C181.211 130.19 178.72 130.288 176.244 130.482C158.008 131.912 140.616 138.761 126.302 150.149C104.288 167.603 91.6619 193.589 91.6619 221.445C91.6996 237.748 96.1017 253.744 104.411 267.771C112.72 281.797 124.634 293.343 138.914 301.209L139.206 301.37V323.031C139.235 326.53 140.646 329.877 143.131 332.341C145.615 334.805 148.973 336.188 152.473 336.188C155.973 336.188 159.33 334.805 161.815 332.341C164.3 329.877 165.711 326.53 165.74 323.031V310.983L166.411 311.109C175.951 312.904 216.123 313.187 225.832 311.914L226.471 311.83Z" fill="#3F3D56"/>
<path d="M163.006 67.4203L100.327 86.2567C98.3338 86.8583 96.6605 88.2266 95.6751 90.061C94.6898 91.8955 94.4729 94.0461 95.0722 96.0404C95.6714 98.0346 97.0378 99.7095 98.8712 100.697C100.705 101.684 102.855 101.904 104.85 101.307L159.701 84.8191L160.85 84.4738C161.082 78.5527 162.689 72.7667 165.542 67.5731C165.184 67.412 164.801 67.3125 164.41 67.2788C163.937 67.233 163.46 67.2811 163.006 67.4203Z" fill="#6C63FF"/>
<path d="M103.766 105.323C102.934 105.32 102.124 105.057 101.449 104.569C100.775 104.082 100.271 103.395 100.009 102.605L96.0895 90.7779C95.9258 90.284 95.861 89.7627 95.8988 89.2437C95.9366 88.7248 96.0762 88.2184 96.3097 87.7534C96.5433 87.2884 96.8661 86.874 97.2598 86.5338C97.6536 86.1936 98.1104 85.9343 98.6044 85.7707L149.618 68.8643C150.112 68.7006 150.634 68.6357 151.153 68.6735C151.671 68.7112 152.178 68.8508 152.643 69.0843C153.108 69.3177 153.522 69.6405 153.862 70.0341C154.203 70.4277 154.462 70.8845 154.626 71.3784L158.545 83.2055C158.871 84.1783 158.806 85.2397 158.363 86.1651C157.92 87.0905 157.134 87.8072 156.172 88.1632C156.125 88.1809 156.077 88.1976 156.029 88.2132L105.016 105.119C104.613 105.254 104.191 105.322 103.766 105.323Z" fill="#2F2E41"/>
<path d="M199.304 46.4161C189.007 46.4201 179.117 50.4303 171.725 57.5979C164.334 64.7655 160.021 74.528 159.701 84.8191C159.689 85.221 159.684 85.6285 159.684 86.036C159.684 93.8721 162.007 101.532 166.361 108.048C170.714 114.563 176.902 119.641 184.142 122.64C191.381 125.639 199.348 126.423 207.033 124.895C214.719 123.366 221.778 119.592 227.319 114.051C232.86 108.511 236.633 101.451 238.162 93.7655C239.691 86.08 238.906 78.1137 235.908 70.8741C232.909 63.6346 227.831 57.4468 221.315 53.0933C214.8 48.7398 207.14 46.4161 199.304 46.4161ZM199.304 124.524C189.099 124.513 179.316 120.455 172.1 113.239C164.885 106.024 160.826 96.2404 160.816 86.036C160.816 85.5096 160.827 84.9889 160.85 84.4739C161.156 76.9347 163.672 69.6518 168.084 63.531C172.497 57.4102 178.611 52.7214 185.667 50.0477C192.723 47.374 200.409 46.8333 207.769 48.4928C215.13 50.1524 221.841 53.939 227.066 59.3817C232.292 64.8245 235.803 71.6834 237.162 79.1054C238.521 86.5274 237.668 94.1852 234.71 101.127C231.752 108.068 226.818 113.986 220.523 118.146C214.228 122.306 206.849 124.524 199.304 124.524Z" fill="#3F3D56"/>
<path d="M232.697 86.036C232.697 94.8926 229.179 103.386 222.917 109.649C216.654 115.912 208.16 119.43 199.304 119.43C190.447 119.43 181.953 115.912 175.691 109.649C169.428 103.386 165.91 94.8926 165.91 86.036C165.91 84.9776 165.961 83.9362 166.057 82.906C166.861 74.3585 170.927 66.4492 177.41 60.8206C183.893 55.1919 192.294 52.2763 200.87 52.679C209.446 53.0818 217.537 56.7721 223.464 62.9836C229.391 69.1952 232.697 77.4507 232.697 86.036Z" fill="#E6E6E6"/>
<path d="M209.065 87.6694C208.747 86.9086 208.257 86.2405 207.277 85.6782C206.77 85.3804 206.225 85.1578 205.659 85.0166C206.04 84.8327 206.391 84.5871 206.697 84.2889C207.148 83.8702 207.489 83.34 207.69 82.7475C207.875 82.1453 207.951 81.5127 207.913 80.8819C207.843 79.7705 207.633 78.6921 207.073 77.9181C206.513 77.1441 205.723 76.5487 204.679 76.1319C203.877 75.8143 203.056 75.6159 201.782 75.5431V71.3158L199.236 72.9697V75.5497H197.199V72.8373L194.588 71.3158V75.5497H189.043L190.826 78.7252C191.377 78.7259 191.75 78.7788 191.94 78.8774C192.118 78.9564 192.264 79.0965 192.354 79.2743C192.437 79.4397 192.475 79.83 192.475 80.432V91.8902C192.475 92.4856 192.437 92.8693 192.354 93.0413C192.271 93.2133 192.226 93.3654 192.029 93.4581C191.832 93.5507 191.825 93.5441 191.278 93.5441H191.272L189.043 96.7195H194.582V100.953H197.192V96.7195H199.229V100.953H201.776V96.6931C203.431 96.6071 204.609 96.3821 205.558 96.0117C206.786 95.5353 207.729 94.8407 208.403 93.9278C209.078 93.0148 209.352 91.6189 209.409 90.5406C209.454 89.5813 209.352 88.3442 209.065 87.6694ZM197.192 79.1221H197.193V79.0341H198.973C199.974 79.0341 203.312 78.6875 203.367 81.5196C203.423 84.3517 198.973 84.236 198.973 84.236H197.193V84.0176H197.192V79.1221ZM197.192 87.1931H199.229C199.643 87.1931 201.067 87.2586 201.585 87.2831C201.796 87.2911 202.005 87.3298 202.206 87.3982C202.28 87.424 202.349 87.4531 202.424 87.4855C202.738 87.591 203.034 87.7468 203.302 87.9473C203.477 88.0671 203.63 88.217 203.756 88.3905C203.81 88.4689 203.861 88.5504 203.906 88.6346C204.027 88.8466 204.116 89.076 204.172 89.3154C204.232 89.5466 204.264 89.785 204.265 90.0246C204.265 90.5399 204.174 90.9666 203.948 91.3278C203.641 91.8611 203.139 92.2388 202.574 92.5054C201.112 93.1961 199.229 93.1471 199.229 93.1471H197.192V87.1931Z" fill="#9086FE"/>
<path d="M105.585 153.256C104.71 153.255 103.86 152.965 103.167 152.431C102.473 151.897 101.976 151.15 101.75 150.304L99.6166 142.227C99.3495 141.212 99.4959 140.133 100.024 139.225C100.552 138.318 101.418 137.657 102.432 137.387L169.753 119.598C170.769 119.333 171.848 119.481 172.755 120.01C173.662 120.539 174.323 121.405 174.593 122.42L176.4 129.263L176.062 129.289C158.796 130.632 142.276 136.891 128.457 147.328L128.359 147.376L106.59 153.126C106.262 153.212 105.924 153.256 105.585 153.256Z" fill="#2F2E41"/>
<path d="M94.4356 193.151C86.5385 191.985 78.9859 189.129 72.2925 184.779C68.9764 182.626 65.9066 180.115 63.1381 177.292C60.4055 174.505 57.7914 171.337 56.4379 167.625C55.1357 164.191 55.2028 160.388 56.6254 157.002C58.0286 153.636 60.7089 150.965 64.0789 149.573C67.469 148.221 71.5649 148.076 74.8642 149.557C76.4364 150.246 77.7969 151.341 78.806 152.73C79.2751 153.37 79.6224 154.091 79.8306 154.857C80.0239 155.551 80.0414 156.282 79.8818 156.984C79.6883 157.686 79.3471 158.338 78.8811 158.896C78.4151 159.455 77.835 159.907 77.1797 160.224C75.7377 160.963 74.1752 161.44 72.5657 161.631C70.9468 161.852 68.6214 162.052 67.32 160.753C67.0521 160.496 66.8414 160.185 66.7016 159.841C66.6038 159.578 66.5703 159.295 66.604 159.016C66.585 159.139 66.6825 158.749 66.677 158.764C66.6564 158.822 66.5673 158.962 66.694 158.746C66.7335 158.675 66.7776 158.607 66.8259 158.541C66.7829 158.597 66.6884 158.689 66.8571 158.53C66.9965 158.378 67.1757 158.267 67.3746 158.211C67.4529 158.188 67.5324 158.17 67.611 158.148C67.8106 158.094 67.412 158.151 67.6162 158.145C67.6951 158.142 67.7748 158.144 67.8534 158.141C68.0538 158.132 67.6557 158.086 67.8477 158.134C67.9223 158.153 67.9962 158.171 68.0696 158.194C68.2293 158.245 67.9565 158.077 68.0647 158.203C68.1915 158.349 67.9316 158.06 68.0757 158.202C68.1474 158.272 68.215 158.347 68.2782 158.425C68.5281 158.672 68.8651 158.81 69.2163 158.81C69.5675 158.81 69.9045 158.672 70.1544 158.425C70.3959 158.172 70.5306 157.836 70.5306 157.487C70.5306 157.137 70.3959 156.801 70.1544 156.549C68.8462 154.927 66.262 155.328 64.9386 156.698C63.2508 158.446 63.9192 161.217 65.5609 162.742C67.4195 164.469 70.0518 164.589 72.4426 164.299C74.463 164.106 76.432 163.549 78.2549 162.657C80.0661 161.767 81.4828 160.236 82.2305 158.362C82.568 157.361 82.6893 156.301 82.5862 155.25C82.4831 154.199 82.158 153.182 81.6325 152.267C79.5217 148.298 75.151 146.264 70.8308 145.911C68.6066 145.737 66.3698 146.006 64.2501 146.702C62.1303 147.398 60.1696 148.507 58.4814 149.966C55.2275 152.895 53.2238 156.963 52.8847 161.328C52.5076 165.854 54.2635 170.249 56.8236 173.901C59.5037 177.612 62.702 180.92 66.3207 183.723C73.3954 189.371 81.6939 193.285 90.5522 195.151C91.6059 195.369 92.6652 195.555 93.7302 195.71C94.069 195.792 94.4265 195.742 94.7297 195.57C95.0329 195.398 95.2591 195.117 95.3622 194.783C95.4532 194.444 95.4069 194.083 95.2335 193.777C95.0601 193.472 94.7735 193.247 94.4356 193.151Z" fill="#3F3D56"/>
<path d="M220.871 135.49C209.301 135.326 197.767 135.62 186.27 136.371C182.34 136.627 178.94 138.016 178.94 140.351C178.94 142.303 182.313 144.589 186.27 144.331C197.761 143.58 209.295 143.287 220.871 143.45C230.309 143.583 230.303 135.623 220.871 135.49Z" fill="#CCCCCC"/>
<path d="M203.77 143.056C202.52 143.056 173.147 143.009 173.147 138.952C173.147 134.895 202.52 134.848 203.77 134.848C205.021 134.848 234.394 134.895 234.394 138.952C234.394 143.009 205.021 143.056 203.77 143.056ZM174.295 138.952C175.099 140.182 185.896 141.924 203.77 141.924C221.645 141.924 232.442 140.182 233.245 138.952C232.442 137.722 221.645 135.98 203.77 135.98C185.896 135.98 175.099 137.722 174.295 138.952Z" fill="#3F3D56"/>
<path d="M296.964 249.718C303.466 249.538 311.559 249.312 317.793 244.758C319.65 243.346 321.175 241.545 322.262 239.482C323.35 237.419 323.973 235.143 324.087 232.813C324.215 229.217 322.915 226.077 320.428 223.976C317.172 221.224 312.417 220.579 307.293 222.085L312.602 183.287L308.705 182.753L302.463 228.365L305.718 226.871C309.491 225.141 314.671 224.26 317.889 226.98C318.679 227.691 319.295 228.575 319.688 229.562C320.082 230.55 320.242 231.615 320.156 232.675C320.061 234.409 319.593 236.101 318.785 237.638C317.977 239.175 316.847 240.52 315.473 241.581C310.621 245.125 304.171 245.582 296.854 245.786L296.964 249.718Z" fill="#3F3D56"/>
<path d="M286.188 186.633H265.002V190.566H286.188V186.633Z" fill="#3F3D56"/>
<path d="M115.172 171.349C114.229 171.346 113.318 171.007 112.602 170.393C111.886 169.78 111.412 168.931 111.265 168L109.971 159.746C109.81 158.709 110.067 157.649 110.686 156.8C111.304 155.951 112.235 155.383 113.272 155.219L182.059 144.441C183.097 144.279 184.156 144.536 185.005 145.155C185.854 145.774 186.423 146.704 186.586 147.742L187.879 155.995C188.041 157.033 187.784 158.093 187.165 158.942C186.547 159.79 185.616 160.359 184.579 160.523L115.792 171.301C115.587 171.333 115.38 171.349 115.172 171.349Z" fill="#2F2E41"/>
<path d="M86.7049 74.6295C102.647 74.6295 115.571 61.7058 115.571 45.7636C115.571 29.8214 102.647 16.8977 86.7049 16.8977C70.7627 16.8977 57.839 29.8214 57.839 45.7636C57.839 61.7058 70.7627 74.6295 86.7049 74.6295Z" fill="#6C63FF"/>
<path d="M103.048 53.2325C103.971 52.9098 104.814 52.3933 105.52 51.7178C105.987 51.2362 106.344 50.6582 106.564 50.0243C106.784 49.3905 106.864 48.7161 106.796 48.0484C106.757 47.5726 106.608 47.1122 106.361 46.7033C106.115 46.2945 105.777 45.9482 105.374 45.6916C104.33 45.0491 102.949 45.0734 101.555 45.7195L101.395 34.4516L100.263 34.4678L100.452 47.7143L101.313 47.1491C102.313 46.4949 103.748 46.0205 104.781 46.6558C105.037 46.824 105.25 47.0489 105.404 47.3129C105.559 47.5769 105.65 47.873 105.671 48.1781C105.719 48.6755 105.659 49.1773 105.495 49.6494C105.331 50.1215 105.068 50.5528 104.723 50.914C103.496 52.1315 101.679 52.5394 99.6064 52.9126L99.807 54.0265C100.909 53.8592 101.994 53.5935 103.048 53.2325Z" fill="#2F2E41"/>
<path d="M113.051 33.6608L107.023 34.5737L107.192 35.6928L113.22 34.7799L113.051 33.6608Z" fill="#2F2E41"/>
<path d="M94.0236 36.5417L87.9956 37.4546L88.1651 38.5736L94.1931 37.6607L94.0236 36.5417Z" fill="#2F2E41"/>
<path d="M105.781 170.844C104.743 170.842 103.73 170.524 102.877 169.932C102.024 169.34 101.372 168.502 101.007 167.53L81.1046 114.231C78.6721 107.694 78.9318 100.459 81.8269 94.1137C84.722 87.7681 90.016 82.8301 96.5474 80.383L112.73 74.3402C113.356 74.105 114.022 73.9958 114.69 74.019C115.358 74.0422 116.015 74.1973 116.623 74.4754C117.23 74.7463 117.776 75.1355 118.23 75.62C118.685 76.1045 119.038 76.6748 119.269 77.2974L156.137 146.906C156.376 147.534 156.489 148.202 156.469 148.874C156.449 149.545 156.296 150.206 156.019 150.819C155.743 151.431 155.348 151.982 154.857 152.441C154.367 152.9 153.791 153.258 153.161 153.493L107.561 170.521C106.992 170.734 106.389 170.844 105.781 170.844Z" fill="#2F2E41"/>
<path d="M107.82 76.1734L144.4 125.09L119.648 76.6868C119.444 76.1221 119.13 75.6031 118.725 75.1596C118.32 74.7161 117.832 74.3567 117.288 74.102C116.744 73.8473 116.155 73.7022 115.555 73.6751C114.955 73.648 114.356 73.7394 113.791 73.944L107.82 76.1734Z" fill="#E6E6E6"/>
<path d="M165.74 113.323L100.427 109.116C99.3971 109.049 98.3907 108.781 97.465 108.326C96.5392 107.87 95.7122 107.237 95.0311 106.462C94.3501 105.688 93.8283 104.786 93.4956 103.81C93.1629 102.833 93.0257 101.801 93.0921 100.771C93.1584 99.7417 93.4268 98.7353 93.882 97.8096C94.3373 96.8838 94.9704 96.0568 95.7452 95.3757C96.5201 94.6947 97.4215 94.1729 98.398 93.8402C99.3745 93.5074 100.407 93.3703 101.436 93.4366L166.75 97.6435C167.232 97.6745 167.703 97.8002 168.137 98.0133C168.571 98.2265 168.958 98.523 169.277 98.8859C169.596 99.2487 169.84 99.6709 169.996 100.128C170.152 100.586 170.216 101.069 170.185 101.551L169.648 109.888C169.585 110.862 169.138 111.77 168.405 112.415C167.673 113.059 166.714 113.385 165.74 113.323Z" fill="#6C63FF"/>
<path d="M148.287 116.02C148.201 116.02 148.115 116.017 148.028 116.012L94.3961 112.557C93.8769 112.524 93.3693 112.388 92.9024 112.159C92.4355 111.929 92.0184 111.61 91.6748 111.219C91.3313 110.828 91.0682 110.374 90.9004 109.881C90.7326 109.389 90.6635 108.868 90.6969 108.349L91.614 94.1092C91.6475 93.59 91.7829 93.0824 92.0125 92.6155C92.2421 92.1486 92.5615 91.7316 92.9523 91.3881C93.3431 91.0446 93.7978 90.7815 94.2903 90.6137C94.7828 90.4459 95.3036 90.3768 95.8228 90.4104L149.454 93.8646C150.503 93.9333 151.481 94.4149 152.174 95.2039C152.868 95.9928 153.22 97.0246 153.154 98.0729L152.237 112.313C152.186 113.076 151.916 113.808 151.46 114.421C151.003 115.035 150.38 115.504 149.663 115.771C149.223 115.936 148.757 116.02 148.287 116.02Z" fill="#2F2E41"/>
<path d="M86.374 26.5683C90.1714 23.3023 95.3862 26.2239 99.741 25.7125C103.907 25.2231 107.197 21.4859 108.038 17.5155C109.018 12.8833 106.614 8.24262 103.07 5.35457C99.1889 2.19145 94.0413 1.28339 89.1634 1.86859C83.5727 2.5393 78.4597 5.14535 73.8718 8.2975C69.4434 11.2459 65.371 14.6967 61.7359 18.5812C58.4808 22.1762 55.7229 26.4614 54.8422 31.2991C54.0419 35.6955 54.653 40.5673 57.2519 44.2916C58.6301 46.2005 60.4769 47.722 62.6143 48.7094C64.8429 49.8037 67.2201 50.5861 69.3792 51.8233C72.6437 53.6942 75.8166 57.5732 74.794 61.61C74.5747 62.4918 74.1421 63.3062 73.5341 63.9815C72.8035 64.7924 71.4859 63.7208 72.2183 62.9078C73.5047 61.4797 73.4541 59.5752 72.7685 57.8703C71.9533 55.949 70.5097 54.3616 68.6744 53.3682C66.4143 52.076 63.9192 51.2784 61.6028 50.1015C59.3856 49.0263 57.4611 47.4314 55.9929 45.4524C53.2206 41.5997 52.3913 36.5856 53.02 31.9472C53.7004 26.9277 56.2794 22.3664 59.5124 18.5441C63.0308 14.3843 67.3525 10.8632 71.7676 7.69991C76.5051 4.30571 81.739 1.43614 87.5307 0.398263C92.5512 -0.501414 97.9931 0.052484 102.383 2.78843C106.481 5.34227 109.624 9.73536 109.936 14.6442C110.048 16.8777 109.563 19.1008 108.531 21.0847C107.499 23.0685 105.957 24.7415 104.063 25.9314C102.12 27.0941 99.8615 27.6174 97.6052 27.4275C95.1932 27.2731 92.7788 26.5345 90.3514 26.7396C89.2529 26.8062 88.2061 27.2292 87.3696 27.9443C86.54 28.6579 85.5511 27.276 86.374 26.5683Z" fill="#2F2E41"/>
<path opacity="0.4" d="M418.547 338H0.673929C0.495531 337.999 0.324621 337.928 0.198657 337.802C0.0726929 337.676 0.00195312 337.504 0.00195312 337.326C0.00195312 337.148 0.0726929 336.977 0.198657 336.85C0.324621 336.724 0.495531 336.653 0.673929 336.652H418.547C418.726 336.652 418.897 336.723 419.023 336.85C419.15 336.976 419.221 337.147 419.221 337.326C419.221 337.505 419.15 337.676 419.023 337.803C418.897 337.929 418.726 338 418.547 338Z" fill="#CCCCCC"/>
</g>
<defs>
<clipPath id="clip0_24_608">
<rect width="419.221" height="338" fill="white"/>
</clipPath>
</defs>
</svg>
