<svg width="171" height="35" viewBox="0 0 171 35" fill="none" xmlns="http://www.w3.org/2000/svg">
<path d="M33.1129 10.3463V21.3107L40.759 16.8956V5.93115L33.1129 10.3463Z" fill="#490BDA" stroke="#8B5CF6" stroke-width="0.229477" stroke-linecap="round" stroke-linejoin="round"/>
<path d="M40.7594 5.58954L33.1133 10.0001L31.5804 9.23363L29.2902 8.09084V5.63085L26.2152 4.09335L31.5804 1L40.7594 5.58954Z" fill="#490BDA" stroke="#8B5CF6" stroke-width="0.229477" stroke-linecap="round" stroke-linejoin="round"/>
<path d="M29.2898 5.63079L27.0088 6.94799L23.9338 8.72414L21.6482 10.0413L20.1107 9.27488L17.8252 8.13209V5.6721L14.7501 4.1346L20.1107 1.04126L26.2148 4.0933L29.2898 5.63079Z" fill="#490BDA" stroke="#8B5CF6" stroke-width="0.229477" stroke-linecap="round" stroke-linejoin="round"/>
<path d="M17.8253 6.01367V30.1363L10.1791 34.5468V10.4288L12.4693 9.10702L15.5397 7.33546L17.5774 6.15595L17.8253 6.01367Z" fill="#490BDA" stroke="#8B5CF6" stroke-width="0.229477" stroke-linecap="round" stroke-linejoin="round"/>
<path d="M29.2901 5.97241V23.5136L21.6485 27.9288V10.3875L23.9341 9.06576L27.0045 7.2942L29.0422 6.11469L29.2901 5.97241Z" fill="#490BDA" stroke="#8B5CF6" stroke-width="0.229477" stroke-linecap="round" stroke-linejoin="round"/>
<path d="M17.8253 5.67206L15.5442 6.98926L12.4692 8.76082L10.1791 10.0826L8.64619 9.31616L1 5.49307L8.64619 1.08252L14.7502 4.13456L17.8253 5.67206Z" fill="#490BDA" stroke="#8B5CF6" stroke-width="0.229477" stroke-linecap="round" stroke-linejoin="round"/>
<path d="M10.1791 10.4289V34.5469L1 29.9574V5.83936L10.1791 10.4289Z" fill="#490BDA" stroke="#8B5CF6" stroke-width="0.229477" stroke-linecap="round" stroke-linejoin="round"/>
<path d="M21.6484 10.3875V27.9287L17.8253 26.0195V8.47827L20.1109 9.62106L21.6484 10.3875Z" fill="#490BDA" stroke="#8B5CF6" stroke-width="0.229477" stroke-linecap="round" stroke-linejoin="round"/>
<path d="M33.1127 10.3463V21.3107L29.2897 19.4014V8.43701L31.5799 9.57981L33.1127 10.3463Z" fill="#490BDA" stroke="#8B5CF6" stroke-width="0.229477" stroke-linecap="round" stroke-linejoin="round"/>
<path d="M56.4805 24.2428C55.1084 24.2428 53.8905 24.1118 52.8267 23.8497C51.763 23.5876 50.7031 23.0943 49.647 22.3697V17.999H52.7805L53.1274 20.2422C53.374 20.5197 53.8096 20.7548 54.4339 20.9475C55.0583 21.1325 55.7405 21.225 56.4805 21.225C56.9893 21.225 57.4209 21.1595 57.7755 21.0284C58.477 20.774 58.8277 20.2923 58.8277 19.5831C58.8277 19.2516 58.7468 18.9549 58.5849 18.6928C58.2611 18.1994 57.4787 17.71 56.2377 17.2243C54.8193 16.7695 53.6361 16.2993 52.688 15.8137C51.763 15.3358 51.0731 14.7692 50.6183 14.114C50.1712 13.4588 49.9477 12.6456 49.9477 11.6743C49.9477 10.7416 50.2136 9.92451 50.7455 9.22305C51.2773 8.5293 52.0096 7.982 52.9424 7.58117C53.8751 7.18033 54.9427 6.96835 56.1452 6.94523C57.5173 6.91439 58.7313 7.05314 59.7874 7.36148C60.8434 7.6621 61.7762 8.12075 62.5855 8.73742V12.7959H59.5793L59.1052 10.5412C58.8431 10.4101 58.4693 10.2907 57.9836 10.1827C57.498 10.0748 56.9815 10.0209 56.4343 10.0209C55.9486 10.0209 55.5324 10.0825 55.1855 10.2059C54.8155 10.3292 54.5226 10.5142 54.3067 10.7609C54.0986 11.0075 53.9946 11.3159 53.9946 11.6859C53.9946 11.9788 54.0832 12.2447 54.2605 12.4837C54.4532 12.7458 54.8078 13.004 55.3242 13.2584C55.8407 13.5128 56.4227 13.7633 57.0702 14.0099C58.9819 14.5727 60.431 15.278 61.4177 16.1259C62.4121 16.9661 62.9093 18.1108 62.9093 19.56C62.9093 20.5621 62.6395 21.4061 62.0999 22.0922C61.5603 22.7936 60.8088 23.3294 59.8452 23.6994C58.8817 24.0617 57.7601 24.2428 56.4805 24.2428ZM69.234 24.2659C67.9236 24.2659 66.9253 23.9191 66.2393 23.2253C65.561 22.5238 65.2218 21.4177 65.2218 19.9069V14.2875H63.6609V11.4893H65.2218V8.40211H69.2571V11.4893H71.3037V14.2875H69.2571V19.8953C69.2571 20.3038 69.3496 20.589 69.5346 20.7509C69.7196 20.9128 69.974 20.9937 70.2978 20.9937C70.4365 20.9937 70.5753 20.986 70.714 20.9706C70.8528 20.9552 70.9915 20.9359 71.1303 20.9128L71.4078 23.9422C71.0532 24.0424 70.6947 24.1195 70.3324 24.1734C69.9779 24.2351 69.6117 24.2659 69.234 24.2659ZM76.819 24.2428C75.6088 24.2428 74.6222 23.8998 73.859 23.2137C73.0959 22.5277 72.7143 21.6143 72.7143 20.4734C72.7143 19.6872 72.9263 18.9973 73.3503 18.4037C73.7665 17.8025 74.3948 17.3323 75.235 16.9931C76.0829 16.6462 77.1428 16.4728 78.4147 16.4728H79.7212V15.7328C79.7212 15.2317 79.5786 14.8078 79.2934 14.4609C79.0082 14.1063 78.5573 13.929 77.9406 13.929C77.4241 13.929 76.9732 14.0562 76.5878 14.3106L76.3103 15.9062H73.4543L73.3965 12.4259C74.1057 12.1098 74.8457 11.8362 75.6165 11.6049C76.3951 11.3737 77.2623 11.2581 78.2181 11.2581C79.9217 11.2581 81.2745 11.6512 82.2766 12.4374C83.2787 13.216 83.7797 14.3298 83.7797 15.779V20.3925C83.7797 20.5698 83.7797 20.7432 83.7797 20.9128C83.7874 21.0824 83.8067 21.2443 83.8375 21.3984L85.1903 21.6297V24H80.4497C80.3495 23.8612 80.2416 23.6762 80.1259 23.445C80.0103 23.2137 79.9294 22.9825 79.8831 22.7512C79.5054 23.2215 79.0814 23.5876 78.6112 23.8497C78.141 24.1118 77.5436 24.2428 76.819 24.2428ZM78.0678 21.3753C78.3607 21.3753 78.6536 21.3175 78.9466 21.2019C79.2472 21.0785 79.5054 20.8974 79.7212 20.6584V18.8547H78.4609C77.9136 18.8547 77.4897 18.9741 77.189 19.2131C76.8961 19.4521 76.7497 19.7681 76.7497 20.1612C76.7497 20.5389 76.873 20.8357 77.1197 21.0515C77.3663 21.2674 77.6824 21.3753 78.0678 21.3753ZM91.596 24.2428C90.6093 24.2428 89.6882 24.1542 88.8325 23.9769C87.9846 23.7919 87.2176 23.5414 86.5316 23.2253L86.4853 19.3287H89.2257L89.6882 21.144C89.85 21.2443 90.0582 21.3329 90.3125 21.41C90.5669 21.4794 90.8714 21.514 91.226 21.514C91.8812 21.514 92.3321 21.4254 92.5788 21.2481C92.8255 21.0708 92.9488 20.8473 92.9488 20.5775C92.9488 20.3077 92.8101 20.0649 92.5326 19.849C92.2551 19.6409 91.6538 19.4482 90.7288 19.2709C89.2642 18.9857 88.185 18.5001 87.4913 17.814C86.7975 17.1203 86.4507 16.2569 86.4507 15.224C86.4507 14.5148 86.6125 13.8673 86.9363 13.2815C87.26 12.688 87.7881 12.21 88.5204 11.8478C89.2604 11.4777 90.247 11.2927 91.4804 11.2927C92.4208 11.2927 93.315 11.3737 94.1629 11.5356C95.0185 11.6974 95.72 11.9017 96.2673 12.1484L96.2557 15.9178H93.5269L93.1801 14.299C92.8178 14.0523 92.3668 13.929 91.8272 13.929C91.3108 13.929 90.9331 14.0215 90.6941 14.2065C90.4552 14.3915 90.3357 14.6305 90.3357 14.9234C90.3357 15.0853 90.3896 15.2549 90.4975 15.4321C90.6132 15.6249 90.8483 15.7983 91.2029 15.9525C91.5575 16.1066 91.9776 16.2377 92.4632 16.3456C93.8892 16.6616 94.9607 17.101 95.6776 17.6637C96.4022 18.2264 96.7645 19.0821 96.7645 20.2306C96.7645 21.4639 96.3212 22.4429 95.4348 23.1675C94.556 23.8844 93.2764 24.2428 91.596 24.2428ZM104.673 21.6297V24H97.9785V21.6297L99.447 21.2597V8.7143L97.6895 8.3443V5.96241H103.482V13.0387C103.852 12.476 104.315 12.0405 104.87 11.7321C105.425 11.4161 106.068 11.2581 106.801 11.2581C108.003 11.2581 108.971 11.6897 109.703 12.5531C110.435 13.4087 110.801 14.7345 110.801 16.5306V21.2597L112.258 21.6297V24H105.552V21.6297L106.743 21.2597V16.5075C106.743 15.6904 106.604 15.1315 106.327 14.8309C106.057 14.5226 105.664 14.3684 105.147 14.3684C104.793 14.3684 104.473 14.4301 104.188 14.5534C103.902 14.6767 103.667 14.8733 103.482 15.1431V21.2597L104.673 21.6297ZM117.508 16.5537V22.2194L119.392 22.5431V24H113.345V22.5431L115.23 22.2194V8.95711L113.345 8.63336V7.16491H126.006V11.2118H124.179L123.925 8.93399H117.508V14.7615H123.671V16.5537H117.508ZM131.834 5.96241V22.2194L133.718 22.5431V24H127.671V22.5431L129.556 22.2194V7.7546L127.671 7.43085V5.96241H131.834ZM141.003 24.2428C139.854 24.2428 138.86 23.9692 138.02 23.4219C137.179 22.8746 136.532 22.123 136.077 21.1672C135.622 20.2113 135.395 19.1167 135.395 17.8834V17.629C135.395 16.4034 135.622 15.305 136.077 14.3337C136.532 13.3702 137.176 12.6186 138.008 12.079C138.848 11.5317 139.839 11.2581 140.98 11.2581C142.128 11.2581 143.126 11.5317 143.974 12.079C144.807 12.6263 145.451 13.3779 145.905 14.3337C146.36 15.2895 146.588 16.388 146.588 17.629V17.8834C146.588 19.109 146.36 20.2075 145.905 21.1787C145.451 22.1346 144.807 22.8861 143.974 23.4334C143.142 23.973 142.151 24.2428 141.003 24.2428ZM141.003 22.4622C141.727 22.4622 142.336 22.2618 142.83 21.8609C143.315 21.4678 143.681 20.9282 143.928 20.2422C144.183 19.5484 144.31 18.7622 144.31 17.8834V17.629C144.31 16.758 144.186 15.9717 143.94 15.2703C143.685 14.5842 143.311 14.0446 142.818 13.6515C142.325 13.2507 141.712 13.0503 140.98 13.0503C140.263 13.0503 139.654 13.2468 139.153 13.6399C138.659 14.0408 138.289 14.5881 138.043 15.2818C137.796 15.9679 137.673 16.7503 137.673 17.629V17.8834C137.673 18.7545 137.796 19.5369 138.043 20.2306C138.289 20.9244 138.659 21.4717 139.153 21.8725C139.654 22.2656 140.271 22.4622 141.003 22.4622ZM158.115 14.4725L158.046 14.484L157.456 16.4843L154.739 24H152.785L149.49 13.1196L148.091 12.9578V11.4893H153.259V12.9578L151.721 13.2121L153.444 19.4444L153.837 20.9244H153.907L154.415 19.4444L157.133 11.4893H159.052L161.642 19.4212L162.197 21.1787H162.266L162.81 19.4212L164.556 13.2006L162.983 12.9578V11.4893H168.036V12.9578L166.649 13.1543L163.411 24H161.249L158.717 16.4843L158.115 14.4725Z" fill="#490BDA"/>
</svg>
