<svg width="419" height="319" viewBox="0 0 419 319" fill="none" xmlns="http://www.w3.org/2000/svg">
<g clip-path="url(#clip0_26_828)">
<path d="M354.867 190.705H142.132C139.435 190.691 136.854 189.608 134.954 187.693C133.055 185.778 131.992 183.188 132 180.491V10.2134C131.992 7.5163 133.055 4.92634 134.954 3.01164C136.854 1.09695 139.435 0.0138679 142.132 0L354.867 0C357.564 0.0138679 360.146 1.09695 362.045 3.01164C363.945 4.92634 365.007 7.5163 365 10.2134V180.491C365.007 183.188 363.945 185.778 362.045 187.693C360.146 189.607 357.564 190.691 354.867 190.705Z" fill="#090814"/>
<path d="M345.839 181.97H143.219C140.661 181.967 138.208 180.949 136.399 179.14C134.59 177.331 133.572 174.879 133.569 172.32V11.4166C133.571 8.85786 134.589 6.40476 136.398 4.59545C138.208 2.78613 140.661 1.76837 143.219 1.76544H345.839C348.397 1.76837 350.85 2.78609 352.66 4.59534C354.469 6.40459 355.487 8.85762 355.49 11.4163V172.32C355.486 174.879 354.469 177.331 352.659 179.14C350.85 180.949 348.397 181.967 345.839 181.97Z" fill="white"/>
<path d="M196.106 105.818L202.183 99.7404H222.124V143.582L215.735 149.971L196.106 105.818Z" fill="#E6E6E6"/>
<path d="M229.411 83.9985L239.535 78.0273H255.495V142.321L249.809 150.126L229.411 83.9985Z" fill="#E6E6E6"/>
<path d="M263.65 64.5046L268.906 59.2488H289.243V142.619L284.576 150.626L263.65 64.5046Z" fill="#E6E6E6"/>
<path d="M218.734 101.189H197.107V149.634H218.734V101.189Z" fill="#6C63FF"/>
<path d="M252.039 79.9944H230.413V150.066H252.039V79.9944Z" fill="#6C63FF"/>
<path d="M285.777 60.9631H264.15V150.066H285.777V60.9631Z" fill="#6C63FF"/>
<path d="M194.778 82.4721L268.727 42.5937L263.113 33.108L294.28 34.0758L276.47 57.1125L270.856 46.6598L196.327 85.3901L194.778 82.4721Z" fill="#6C63FF"/>
</g>
<path opacity="0.4" d="M0 318C0 318.555 0.42328 319 0.950379 319H418.05C418.577 319 419 318.555 419 318C419 317.445 418.577 317 418.05 317H0.950379C0.42328 317 0 317.445 0 318Z" fill="#CCCCCC"/>
<path d="M159.392 123.364C163.957 121.856 166.879 118.279 165.919 115.374C164.959 112.47 160.481 111.337 155.915 112.846C154.083 113.424 152.416 114.432 151.053 115.786L131.793 122.417L135.098 131.389L153.734 123.899C155.636 124.175 157.576 123.991 159.392 123.364Z" fill="#FFB6B6"/>
<path d="M60.3887 174.784C60.5446 179.589 63.1499 183.403 66.2075 183.303C69.2651 183.203 71.6167 179.228 71.4601 174.422C71.4239 172.501 70.9283 170.617 70.0146 168.927L69.0973 148.578L59.5574 149.212L61.4746 169.205C60.6723 170.951 60.2999 172.864 60.3887 174.784Z" fill="#FFB6B6"/>
<path d="M82.4128 311.896L90.9281 311.895L93.1099 278.833L82.4111 279.051L82.4128 311.896Z" fill="#FFB6B6"/>
<path d="M111.587 311.703C111.852 312.149 111.992 313.591 111.992 314.11C111.992 315.706 110.698 317 109.102 317H82.7313C81.6424 317 80.7596 316.117 80.7596 315.028V313.93C80.7596 313.93 79.4551 310.631 82.1409 306.564C82.1409 306.564 85.479 309.748 90.467 304.76L91.9379 302.095L102.585 309.882L108.487 310.609C109.778 310.768 110.923 310.584 111.587 311.703Z" fill="#2F2E41"/>
<path d="M102.598 311.896L111.114 311.895L113.295 278.833L102.597 279.051L102.598 311.896Z" fill="#FFB6B6"/>
<path d="M131.773 311.703C132.038 312.149 132.178 313.591 132.178 314.11C132.178 315.706 130.884 317 129.288 317H102.917C101.828 317 100.945 316.117 100.945 315.028V313.93C100.945 313.93 99.6406 310.631 102.326 306.564C102.326 306.564 105.665 309.748 110.653 304.76L112.123 302.095L122.771 309.882L128.673 310.609C129.964 310.768 131.109 310.584 131.773 311.703Z" fill="#2F2E41"/>
<path d="M87.3682 65.6358C94.2862 65.6358 99.8943 60.0277 99.8943 53.1097C99.8943 46.1917 94.2862 40.5836 87.3682 40.5836C80.4502 40.5836 74.842 46.1917 74.842 53.1097C74.842 60.0277 80.4502 65.6358 87.3682 65.6358Z" fill="#FFB6B6"/>
<path d="M70.0364 157.299L75.9238 241.405L79.2881 297.757L95.2682 296.916L93.5861 235.518L96.9504 197.67L101.997 296.916H114.715L119.659 158.14L92.3245 154.355L70.0364 157.299Z" fill="#2F2E41"/>
<path d="M91.9039 63.1002C88.3413 66.5296 80.1079 64.2557 75.9238 63.1002C73.6206 62.4642 72.2307 61.8086 71.7184 60.577C71.3624 59.7209 71.5647 58.9091 70.8774 57.2128C70.4748 56.2191 70.2625 56.145 70.0363 55.5306C69.4058 53.818 70.2816 52.2922 70.8774 50.4843C72.1205 46.7119 70.6363 46.2883 71.7184 43.7558C73.3453 39.9484 77.7709 38.3993 79.288 37.8683C82.1206 36.8769 84.4829 36.9817 85.1754 37.0273C89.6124 37.3194 92.5788 39.5961 93.5861 40.3915C95.6279 42.0038 96.6294 43.7093 98.6324 47.12C100.375 50.0881 100.503 51.2271 100.315 52.1664C100.028 53.5977 99.2027 53.603 98.6324 55.5306C97.9852 57.7187 98.7214 58.8184 97.7914 59.736C97.1627 60.3562 96.5784 60.0982 95.2682 60.577C93.4649 61.236 92.5748 62.4545 91.9039 63.1002Z" fill="#2F2E41"/>
<path d="M101.997 75.7161C101.997 75.7161 89.3808 59.7359 73.4006 65.6234L68.2251 75.7161L66.496 77.3529C59.2425 84.2189 55.8678 94.2361 57.4879 104.092L64.99 149.73C64.99 149.73 64.149 167.392 70.0364 172.438C70.0364 172.438 78.447 156.458 98.6325 164.028C118.818 171.597 123.023 167.392 123.023 167.392L116.295 119.451L101.997 75.7161Z" fill="#2F2E41"/>
<path d="M97.7915 78.2393L93.5862 87.491L109.566 141.319L153.302 125.339L147.414 115.246L126.388 121.134C126.388 121.134 110.407 74.034 97.7915 78.2393Z" fill="#2F2E41"/>
<path d="M67.9338 162.766H58.6821L57 95.4811L67.9338 118.19V162.766Z" fill="#2F2E41"/>
<defs>
<clipPath id="clip0_26_828">
<rect width="233" height="190.705" fill="white" transform="translate(132)"/>
</clipPath>
</defs>
</svg>
