<svg width="24" height="24" viewBox="0 0 24 24" fill="none" xmlns="http://www.w3.org/2000/svg">
<path d="M12 13V2L20 6L12 10" stroke="#5C5960" stroke-width="2" stroke-linecap="round" stroke-linejoin="round"/>
<path d="M20.561 10.2221C21.0932 11.8623 21.1429 13.6208 20.7044 15.2884C20.266 16.956 19.3576 18.4626 18.0876 19.6288C16.8175 20.7951 15.2391 21.5719 13.5402 21.867C11.8414 22.162 10.0935 21.9628 8.50456 21.293C6.91564 20.6233 5.55256 19.5112 4.57749 18.089C3.60242 16.6669 3.05641 14.9946 3.00441 13.2711C2.95242 11.5475 3.39663 9.84535 4.2842 8.36702C5.17178 6.88869 6.46534 5.69644 8.011 4.93213" stroke="#5C5960" stroke-width="2" stroke-linecap="round" stroke-linejoin="round"/>
<path d="M8.002 9.99707C7.50091 10.6641 7.17468 11.4459 7.05305 12.2713C6.93141 13.0966 7.01823 13.9393 7.3056 14.7225C7.59298 15.5057 8.07176 16.2046 8.69833 16.7554C9.3249 17.3063 10.0794 17.6916 10.8929 17.8762C11.7065 18.0609 12.5534 18.039 13.3564 17.8127C14.1593 17.5863 14.8929 17.1626 15.4902 16.5802C16.0875 15.9977 16.5296 15.2751 16.7762 14.4781C17.0228 13.6811 17.0661 12.8351 16.902 12.0171" stroke="#5C5960" stroke-width="2" stroke-linecap="round" stroke-linejoin="round"/>
</svg>
