<svg width="260" height="53" viewBox="0 0 260 53" fill="none" xmlns="http://www.w3.org/2000/svg">
<path d="M49.8199 15.2087V31.8775L61.4441 25.1653V8.49655L49.8199 15.2087Z" fill="white" stroke="#8B5CF6" stroke-width="0.348865" stroke-linecap="round" stroke-linejoin="round"/>
<path d="M61.4447 7.97731L49.8206 14.6825L47.4901 13.5173L44.0085 11.7799V8.0401L39.3337 5.7027L47.4901 1L61.4447 7.97731Z" fill="white" stroke="#8B5CF6" stroke-width="0.348865" stroke-linecap="round" stroke-linejoin="round"/>
<path d="M44.008 8.04007L40.5402 10.0426L35.8654 12.7428L32.3907 14.7452L30.0534 13.58L26.5787 11.8427V8.10286L21.9038 5.76547L30.0534 1.06277L39.3331 5.70268L44.008 8.04007Z" fill="white" stroke="#8B5CF6" stroke-width="0.348865" stroke-linecap="round" stroke-linejoin="round"/>
<path d="M26.5789 8.62213V45.2948L14.9547 52V15.3343L18.4363 13.3248L23.1041 10.6316L26.2021 8.83843L26.5789 8.62213Z" fill="white" stroke="#8B5CF6" stroke-width="0.348865" stroke-linecap="round" stroke-linejoin="round"/>
<path d="M44.0083 8.55933V35.2266L32.3911 41.9387V15.2715L35.8658 13.262L40.5336 10.5688L43.6315 8.77562L44.0083 8.55933Z" fill="white" stroke="#8B5CF6" stroke-width="0.348865" stroke-linecap="round" stroke-linejoin="round"/>
<path d="M26.5788 8.10292L23.111 10.1054L18.4362 12.7986L14.9546 14.8081L12.6242 13.6429L1 7.83081L12.6242 1.12561L21.904 5.76551L26.5788 8.10292Z" fill="white" stroke="#8B5CF6" stroke-width="0.348865" stroke-linecap="round" stroke-linejoin="round"/>
<path d="M14.9546 15.3343V52L1 45.0227V8.35699L14.9546 15.3343Z" fill="white" stroke="#8B5CF6" stroke-width="0.348865" stroke-linecap="round" stroke-linejoin="round"/>
<path d="M32.3909 15.2715V41.9388L26.5789 39.0362V12.369L30.0536 14.1063L32.3909 15.2715Z" fill="white" stroke="#8B5CF6" stroke-width="0.348865" stroke-linecap="round" stroke-linejoin="round"/>
<path d="M49.8198 15.2087V31.8774L44.0078 28.9749V12.3061L47.4894 14.0435L49.8198 15.2087Z" fill="white" stroke="#8B5CF6" stroke-width="0.348865" stroke-linecap="round" stroke-linejoin="round"/>
<path d="M85.345 36.3691C83.259 36.3691 81.4075 36.1699 79.7903 35.7715C78.1731 35.373 76.5618 34.623 74.9563 33.5215V26.877H79.72L80.2473 30.2871C80.6223 30.709 81.2844 31.0664 82.2336 31.3594C83.1829 31.6406 84.22 31.7812 85.345 31.7812C86.1184 31.7812 86.7747 31.6816 87.3137 31.4824C88.3801 31.0957 88.9133 30.3633 88.9133 29.2852C88.9133 28.7812 88.7903 28.3301 88.5442 27.9316C88.052 27.1816 86.8625 26.4375 84.9758 25.6992C82.8196 25.0078 81.0208 24.293 79.5793 23.5547C78.1731 22.8281 77.1243 21.9668 76.4329 20.9707C75.7532 19.9746 75.4133 18.7383 75.4133 17.2617C75.4133 15.8437 75.8176 14.6016 76.6262 13.5352C77.4348 12.4805 78.5481 11.6484 79.9661 11.0391C81.384 10.4297 83.0071 10.1074 84.8352 10.0723C86.9211 10.0254 88.7668 10.2363 90.3723 10.7051C91.9778 11.1621 93.3958 11.8594 94.6262 12.7969V18.9668H90.0559L89.3352 15.5391C88.9368 15.3398 88.3684 15.1582 87.6301 14.9941C86.8918 14.8301 86.1067 14.748 85.2747 14.748C84.5364 14.748 83.9036 14.8418 83.3762 15.0293C82.8137 15.2168 82.3684 15.498 82.0403 15.873C81.7239 16.248 81.5657 16.7168 81.5657 17.2793C81.5657 17.7246 81.7004 18.1289 81.97 18.4922C82.2629 18.8906 82.802 19.2832 83.5872 19.6699C84.3723 20.0566 85.2571 20.4375 86.2415 20.8125C89.1477 21.668 91.3508 22.7402 92.8508 24.0293C94.3625 25.3066 95.1184 27.0469 95.1184 29.25C95.1184 30.7734 94.7083 32.0566 93.8879 33.0996C93.0676 34.166 91.925 34.9805 90.4602 35.543C88.9954 36.0938 87.2903 36.3691 85.345 36.3691ZM104.734 36.4043C102.741 36.4043 101.224 35.877 100.181 34.8223C99.1497 33.7559 98.634 32.0742 98.634 29.7773V21.2344H96.261V16.9805H98.634V12.2871H104.769V16.9805H107.88V21.2344H104.769V29.7598C104.769 30.3809 104.909 30.8145 105.191 31.0605C105.472 31.3066 105.859 31.4297 106.351 31.4297C106.562 31.4297 106.773 31.418 106.984 31.3945C107.195 31.3711 107.406 31.3418 107.616 31.3066L108.038 35.9121C107.499 36.0645 106.954 36.1816 106.404 36.2637C105.865 36.3574 105.308 36.4043 104.734 36.4043ZM116.265 36.3691C114.425 36.3691 112.925 35.8477 111.765 34.8047C110.605 33.7617 110.025 32.373 110.025 30.6387C110.025 29.4434 110.347 28.3945 110.991 27.4922C111.624 26.5781 112.579 25.8633 113.857 25.3477C115.146 24.8203 116.757 24.5566 118.691 24.5566H120.677V23.4316C120.677 22.6699 120.46 22.0254 120.027 21.498C119.593 20.959 118.907 20.6895 117.97 20.6895C117.185 20.6895 116.499 20.8828 115.913 21.2695L115.491 23.6953H111.15L111.062 18.4043C112.14 17.9238 113.265 17.5078 114.437 17.1562C115.62 16.8047 116.939 16.6289 118.392 16.6289C120.982 16.6289 123.038 17.2266 124.562 18.4219C126.085 19.6055 126.847 21.2988 126.847 23.502V30.5156C126.847 30.7852 126.847 31.0488 126.847 31.3066C126.859 31.5645 126.888 31.8105 126.935 32.0449L128.991 32.3965V36H121.784C121.632 35.7891 121.468 35.5078 121.292 35.1562C121.116 34.8047 120.993 34.4531 120.923 34.1016C120.349 34.8164 119.704 35.373 118.99 35.7715C118.275 36.1699 117.366 36.3691 116.265 36.3691ZM118.163 32.0098C118.609 32.0098 119.054 31.9219 119.499 31.7461C119.956 31.5586 120.349 31.2832 120.677 30.9199V28.1777H118.761C117.929 28.1777 117.284 28.3594 116.827 28.7227C116.382 29.0859 116.159 29.5664 116.159 30.1641C116.159 30.7383 116.347 31.1895 116.722 31.5176C117.097 31.8457 117.577 32.0098 118.163 32.0098ZM138.73 36.3691C137.23 36.3691 135.829 36.2344 134.529 35.9648C133.24 35.6836 132.073 35.3027 131.031 34.8223L130.96 28.8984H135.126L135.829 31.6582C136.075 31.8105 136.392 31.9453 136.779 32.0625C137.165 32.168 137.628 32.2207 138.167 32.2207C139.163 32.2207 139.849 32.0859 140.224 31.8164C140.599 31.5469 140.786 31.207 140.786 30.7969C140.786 30.3867 140.575 30.0176 140.154 29.6895C139.732 29.373 138.818 29.0801 137.411 28.8105C135.185 28.377 133.544 27.6387 132.49 26.5957C131.435 25.541 130.907 24.2285 130.907 22.6582C130.907 21.5801 131.154 20.5957 131.646 19.7051C132.138 18.8027 132.941 18.0762 134.054 17.5254C135.179 16.9629 136.679 16.6816 138.554 16.6816C139.984 16.6816 141.343 16.8047 142.632 17.0508C143.933 17.2969 144.999 17.6074 145.831 17.9824L145.814 23.7129H141.665L141.138 21.252C140.587 20.877 139.902 20.6895 139.081 20.6895C138.296 20.6895 137.722 20.8301 137.359 21.1113C136.995 21.3926 136.814 21.7559 136.814 22.2012C136.814 22.4473 136.896 22.7051 137.06 22.9746C137.236 23.2676 137.593 23.5312 138.132 23.7656C138.671 24 139.31 24.1992 140.048 24.3633C142.216 24.8438 143.845 25.5117 144.935 26.3672C146.036 27.2227 146.587 28.5234 146.587 30.2695C146.587 32.1445 145.913 33.6328 144.566 34.7344C143.23 35.8242 141.284 36.3691 138.73 36.3691ZM158.611 32.3965V36H148.433V32.3965L150.665 31.834V12.7617L147.993 12.1992V8.57812H156.8V19.3359C157.363 18.4805 158.066 17.8184 158.909 17.3496C159.753 16.8691 160.732 16.6289 161.845 16.6289C163.673 16.6289 165.144 17.2852 166.257 18.5977C167.37 19.8984 167.927 21.9141 167.927 24.6445V31.834L170.142 32.3965V36H159.947V32.3965L161.757 31.834V24.6094C161.757 23.3672 161.546 22.5176 161.124 22.0605C160.714 21.5918 160.116 21.3574 159.331 21.3574C158.792 21.3574 158.306 21.4512 157.872 21.6387C157.439 21.8262 157.081 22.125 156.8 22.5352V31.834L158.611 32.3965ZM178.122 24.6797V33.293L180.988 33.7852V36H171.794V33.7852L174.659 33.293V13.1309L171.794 12.6387V10.4062H191.042V16.5586H188.265L187.878 13.0957H178.122V21.9551H187.491V24.6797H178.122ZM199.902 8.57812V33.293L202.767 33.7852V36H193.573V33.7852L196.439 33.293V11.3027L193.573 10.8105V8.57812H199.902ZM213.841 36.3691C212.095 36.3691 210.583 35.9531 209.306 35.1211C208.029 34.2891 207.044 33.1465 206.353 31.6934C205.661 30.2402 205.316 28.5762 205.316 26.7012V26.3145C205.316 24.4512 205.661 22.7812 206.353 21.3047C207.044 19.8398 208.023 18.6973 209.288 17.877C210.566 17.0449 212.072 16.6289 213.806 16.6289C215.552 16.6289 217.07 17.0449 218.359 17.877C219.624 18.709 220.603 19.8516 221.294 21.3047C221.986 22.7578 222.331 24.4277 222.331 26.3145V26.7012C222.331 28.5645 221.986 30.2344 221.294 31.7109C220.603 33.1641 219.624 34.3066 218.359 35.1387C217.093 35.959 215.587 36.3691 213.841 36.3691ZM213.841 33.6621C214.943 33.6621 215.868 33.3574 216.618 32.748C217.357 32.1504 217.913 31.3301 218.288 30.2871C218.675 29.2324 218.868 28.0371 218.868 26.7012V26.3145C218.868 24.9902 218.681 23.7949 218.306 22.7285C217.919 21.6855 217.351 20.8652 216.601 20.2676C215.851 19.6582 214.919 19.3535 213.806 19.3535C212.716 19.3535 211.79 19.6523 211.029 20.25C210.279 20.8594 209.716 21.6914 209.341 22.7461C208.966 23.7891 208.779 24.9785 208.779 26.3145V26.7012C208.779 28.0254 208.966 29.2148 209.341 30.2695C209.716 31.3242 210.279 32.1562 211.029 32.7656C211.79 33.3633 212.728 33.6621 213.841 33.6621ZM239.857 21.5156L239.751 21.5332L238.855 24.5742L234.724 36H231.753L226.743 19.459L224.616 19.2129V16.9805H232.474V19.2129L230.136 19.5996L232.755 29.0742L233.353 31.3242H233.458L234.232 29.0742L238.363 16.9805H241.281L245.218 29.0391L246.062 31.7109H246.167L246.993 29.0391L249.648 19.582L247.257 19.2129V16.9805H254.939V19.2129L252.829 19.5117L247.907 36H244.62L240.771 24.5742L239.857 21.5156Z" fill="white"/>
</svg>
